<svg xmlns="http://www.w3.org/2000/svg" fill="none" viewBox="0 0 134 134" height="134" width="134">
<g clip-path="url(#clip0_0_168)">
<ellipse fill="#F2D89C" ry="6.80709" rx="66.5" cy="120.193" cx="66.5"></ellipse>
<path stroke-width="0.918963" stroke="black" fill="white" d="M92.7938 67.6633L103.712 69.0502L104.351 69.1314L104.066 69.7093C103.389 71.0818 102.848 72.453 102.434 73.8062C100.485 80.1805 101.251 86.3271 102.923 91.4659C104.845 97.3652 107.942 101.908 109.448 103.895L109.449 103.897C110.066 104.718 110.024 105.911 109.366 106.689L109.364 106.691L107.014 109.433L107.014 109.433L100.947 116.524C100.947 116.524 100.946 116.524 100.946 116.524C100.861 116.625 100.711 116.77 100.549 116.924C100.506 116.965 100.46 117.008 100.413 117.052C100.274 117.185 100.118 117.332 99.9538 117.492C99.5121 117.922 99.0317 118.417 98.6889 118.879C98.517 119.11 98.3929 119.315 98.323 119.486C98.2501 119.664 98.2598 119.746 98.2664 119.768C98.2681 119.774 98.2707 119.781 98.2832 119.792C98.2984 119.807 98.3346 119.834 98.4111 119.862C98.5712 119.92 98.851 119.963 99.3054 119.946L99.3171 119.945L99.3288 119.945L102.912 119.992L102.98 119.992L103.045 120.013C103.444 120.139 103.94 120.113 104.517 119.937C105.09 119.762 105.708 119.449 106.322 119.05C107.553 118.252 108.71 117.149 109.399 116.277L109.399 116.277L109.407 116.267L113.173 111.754L114.322 110.298L92.7938 67.6633ZM92.7938 67.6633C94.9392 62.4381 99.4371 56.3412 108.877 54.1146C110.95 53.6285 112.81 53.4769 114.473 53.6086C120.391 56.1133 122.812 61.5524 123.029 67.3784C123.247 73.2409 121.22 79.3948 118.372 83.0879C118.119 83.4154 117.886 83.7669 117.674 84.1287C117.674 84.1287 117.674 84.1288 117.674 84.1288L118.071 84.3608L92.7938 67.6633Z"></path>
<path stroke-width="0.918963" stroke="black" fill="white" d="M6.10637 115.614L6.10647 115.614C8.30277 115.827 12.0987 115.413 15.7758 114.737C19.4542 114.062 23.111 113.107 25.0258 112.199C27.5174 111.019 34.6284 107.16 40.1314 104.174C42.8514 102.698 45.1786 101.435 46.3609 100.815C49.4981 99.1672 51.4779 98.0678 52.6753 97.379C53.1539 97.1037 53.5078 96.8938 53.7609 96.7406L58.1518 113.241C58.0339 113.276 57.893 113.318 57.7307 113.366C57.1871 113.527 56.4043 113.756 55.4483 114.032C53.5361 114.585 50.9318 115.322 48.1621 116.063C45.3917 116.805 42.4596 117.55 39.8908 118.117C37.3094 118.686 35.1333 119.068 33.8554 119.099C29.6165 119.203 8.61029 119.817 2.93192 119.982L2.60591 119.992L2.60547 119.992C2.51514 119.995 2.41816 119.948 2.34525 119.833C2.27163 119.716 2.24233 119.553 2.29573 119.389L6.10637 115.614ZM6.10637 115.614C5.06552 115.513 4.26402 116.011 3.62947 116.785M6.10637 115.614L3.62947 116.785M3.62947 116.785C2.98772 117.567 2.5581 118.587 2.29576 119.389L3.62947 116.785Z"></path>
<mask fill="white" id="path-4-inside-1_0_168">
<path d="M114.554 51.9122C116.023 52.032 117.354 52.3618 118.553 52.8657C117.314 48.8069 111.996 42.2243 100.637 48.3638C86.4375 56.0382 90.4133 67.7002 84.1656 71.2468C85.2933 68.7333 87.6673 62.5268 88.1414 57.8092C88.7341 51.9122 94.6126 39.5087 108.391 40.0991C122.169 40.6894 125.116 51.7704 126.096 58.3318L126.089 58.3444C125.774 58.6776 125.449 58.9673 125.125 59.219C125.394 59.7368 125.64 60.2722 125.864 60.8217C128.28 66.7586 128.058 74.358 126.052 79.4195C123.901 84.8537 126.488 92.8762 128.269 98.398L128.269 98.3981C128.828 100.134 129.308 101.623 129.536 102.706C129.825 104.075 129.699 105.512 129.174 106.789L125.154 116.615C124.245 118.838 122.309 120.278 120.155 120.341L117.206 120.425C116.446 120.446 115.936 119.529 116.283 118.763L122.679 104.645C123.019 103.892 122.804 102.962 122.169 102.51C120.787 101.509 118.311 99.5579 115.78 96.7276C114.044 94.7766 112.281 92.4111 110.833 89.6566L110.826 89.6687C110.083 91.5318 109.266 93.4284 108.391 95.2999C106.056 100.27 103.262 105.047 100.07 108.48C94.409 114.572 87.7143 117.448 79.6559 117.247C76.7554 117.172 73.6702 116.699 70.3965 115.832C68.2642 115.271 66.0473 114.538 63.7458 113.634L63.7233 113.626L63.6989 113.617C63.6371 113.595 63.5751 113.572 63.513 113.546L63.5167 113.554C63.5167 113.554 44.9016 119.152 39.0749 119.537C38.9464 119.549 38.8204 119.553 38.7037 119.557H38.7036L38.6725 119.559C34.3491 119.663 12.5718 120.299 7.42503 120.45C6.86688 120.467 6.47172 119.839 6.66743 119.245C7.20333 117.599 8.47067 114.915 10.9572 115.158C15.2138 115.568 25.9215 113.542 29.6349 111.783C31.0227 111.127 32.1923 110.46 33.3131 109.82C34.3795 109.211 35.4017 108.628 36.5258 108.103C37.3793 107.701 38.2919 107.337 39.3302 107.019C40.3389 106.709 41.7281 105.491 43.2282 103.866C44.1815 102.836 45.1754 101.639 46.1472 100.408C45.9879 100.265 45.8294 100.124 45.6742 99.9808C42.5923 97.2039 39.616 94.552 38.3359 93.4113L38.3352 93.4107L38.3338 93.4094L38.3308 93.4068C37.9733 93.0882 37.7491 92.8885 37.6933 92.8381L37.6787 92.8256C36.1896 91.6365 32.0695 88.1322 28.8406 84.3096C27.8577 83.1457 26.9562 81.9525 26.2427 80.7844C25.578 79.7083 25.0714 78.6575 24.7984 77.6736C24.7393 77.4684 24.6946 77.2674 24.6576 77.0665C24.6284 76.9074 24.6022 76.7483 24.5841 76.5934C24.5726 76.5138 24.5619 76.4343 24.5545 76.3547C24.5361 76.1747 24.5213 75.9989 24.5102 75.8234C24.3698 73.4658 25.0312 71.3394 25.7661 69.7438L25.7701 69.7396C25.9327 69.3921 26.099 69.0655 26.2616 68.7725C26.4759 68.3831 26.6824 68.0439 26.8671 67.7592C27.0855 67.4285 27.407 67.2317 27.7469 67.1857C27.8393 67.1773 27.9316 67.1773 28.0203 67.1857C28.1751 67.2024 28.3344 67.2526 28.4785 67.3364L30.3702 68.4417L34.4457 70.8114C34.9629 71.1212 35.5172 71.3222 36.0862 71.4394C36.9951 71.6237 37.941 71.5655 38.8352 71.2468C38.9127 71.2217 38.994 71.1924 39.0716 71.1589L40.4276 70.6146C40.605 70.5435 40.786 70.4853 40.9708 70.4388C41.0299 70.422 41.0923 70.4095 41.1555 70.3973C41.399 70.3509 41.6466 70.3257 41.8945 70.3257C41.9906 70.3257 42.0866 70.3299 42.1827 70.3383C42.2825 70.3425 42.3785 70.3551 42.4779 70.3718C42.5263 70.376 42.5744 70.3844 42.6224 70.3973C42.6647 70.4027 42.7073 70.4122 42.75 70.4216L42.7925 70.4308L42.8108 70.4346L42.8441 70.4436C42.9261 70.4659 43.0103 70.4887 43.0916 70.5142H43.099L48.2792 72.1935C49.7867 72.6787 51.0651 73.6291 52.144 74.7935L52.2253 74.8814L52.3177 74.9898C52.7832 75.5094 53.2078 76.0742 53.5961 76.6608C53.677 76.7776 53.7546 76.899 53.8289 77.0204C54.2723 77.7242 54.6676 78.4523 55.0112 79.1682L55.0186 79.1808C55.1664 79.4869 55.3031 79.7879 55.4325 80.0852C55.7687 80.8643 56.0495 81.605 56.2786 82.2707V82.2748C56.5298 83.0117 56.7179 83.6522 56.8513 84.1379C57.786 82.6977 58.8316 83.5267 59.1863 84.1924C59.5632 83.0368 60.9377 83.041 61.503 84.197C62.1164 83.0913 63.2762 83.3299 63.8271 84.117C68.2495 83.9454 74.3907 83.489 79.0902 82.2916C82.3494 81.4626 86.4913 78.2262 88.7341 76.3129C89.7022 75.4881 90.3447 74.2701 90.5335 72.9094C90.5738 72.6159 90.6259 72.2894 90.6887 71.9419C90.9363 70.5393 91.3686 68.7431 92.1186 66.7963C94.2095 61.3576 98.7841 54.7718 108.745 52.4188C110.885 51.9164 112.817 51.7657 114.554 51.9122Z"></path>
</mask>
<path mask="url(#path-4-inside-1_0_168)" stroke-width="1.83793" stroke="black" fill="white" d="M114.554 51.9122C116.023 52.032 117.354 52.3618 118.553 52.8657C117.314 48.8069 111.996 42.2243 100.637 48.3638C86.4375 56.0382 90.4133 67.7002 84.1656 71.2468C85.2933 68.7333 87.6673 62.5268 88.1414 57.8092C88.7341 51.9122 94.6126 39.5087 108.391 40.0991C122.169 40.6894 125.116 51.7704 126.096 58.3318L126.089 58.3444C125.774 58.6776 125.449 58.9673 125.125 59.219C125.394 59.7368 125.64 60.2722 125.864 60.8217C128.28 66.7586 128.058 74.358 126.052 79.4195C123.901 84.8537 126.488 92.8762 128.269 98.398L128.269 98.3981C128.828 100.134 129.308 101.623 129.536 102.706C129.825 104.075 129.699 105.512 129.174 106.789L125.154 116.615C124.245 118.838 122.309 120.278 120.155 120.341L117.206 120.425C116.446 120.446 115.936 119.529 116.283 118.763L122.679 104.645C123.019 103.892 122.804 102.962 122.169 102.51C120.787 101.509 118.311 99.5579 115.78 96.7276C114.044 94.7766 112.281 92.4111 110.833 89.6566L110.826 89.6687C110.083 91.5318 109.266 93.4284 108.391 95.2999C106.056 100.27 103.262 105.047 100.07 108.48C94.409 114.572 87.7143 117.448 79.6559 117.247C76.7554 117.172 73.6702 116.699 70.3965 115.832C68.2642 115.271 66.0473 114.538 63.7458 113.634L63.7233 113.626L63.6989 113.617C63.6371 113.595 63.5751 113.572 63.513 113.546L63.5167 113.554C63.5167 113.554 44.9016 119.152 39.0749 119.537C38.9464 119.549 38.8204 119.553 38.7037 119.557H38.7036L38.6725 119.559C34.3491 119.663 12.5718 120.299 7.42503 120.45C6.86688 120.467 6.47172 119.839 6.66743 119.245C7.20333 117.599 8.47067 114.915 10.9572 115.158C15.2138 115.568 25.9215 113.542 29.6349 111.783C31.0227 111.127 32.1923 110.46 33.3131 109.82C34.3795 109.211 35.4017 108.628 36.5258 108.103C37.3793 107.701 38.2919 107.337 39.3302 107.019C40.3389 106.709 41.7281 105.491 43.2282 103.866C44.1815 102.836 45.1754 101.639 46.1472 100.408C45.9879 100.265 45.8294 100.124 45.6742 99.9808C42.5923 97.2039 39.616 94.552 38.3359 93.4113L38.3352 93.4107L38.3338 93.4094L38.3308 93.4068C37.9733 93.0882 37.7491 92.8885 37.6933 92.8381L37.6787 92.8256C36.1896 91.6365 32.0695 88.1322 28.8406 84.3096C27.8577 83.1457 26.9562 81.9525 26.2427 80.7844C25.578 79.7083 25.0714 78.6575 24.7984 77.6736C24.7393 77.4684 24.6946 77.2674 24.6576 77.0665C24.6284 76.9074 24.6022 76.7483 24.5841 76.5934C24.5726 76.5138 24.5619 76.4343 24.5545 76.3547C24.5361 76.1747 24.5213 75.9989 24.5102 75.8234C24.3698 73.4658 25.0312 71.3394 25.7661 69.7438L25.7701 69.7396C25.9327 69.3921 26.099 69.0655 26.2616 68.7725C26.4759 68.3831 26.6824 68.0439 26.8671 67.7592C27.0855 67.4285 27.407 67.2317 27.7469 67.1857C27.8393 67.1773 27.9316 67.1773 28.0203 67.1857C28.1751 67.2024 28.3344 67.2526 28.4785 67.3364L30.3702 68.4417L34.4457 70.8114C34.9629 71.1212 35.5172 71.3222 36.0862 71.4394C36.9951 71.6237 37.941 71.5655 38.8352 71.2468C38.9127 71.2217 38.994 71.1924 39.0716 71.1589L40.4276 70.6146C40.605 70.5435 40.786 70.4853 40.9708 70.4388C41.0299 70.422 41.0923 70.4095 41.1555 70.3973C41.399 70.3509 41.6466 70.3257 41.8945 70.3257C41.9906 70.3257 42.0866 70.3299 42.1827 70.3383C42.2825 70.3425 42.3785 70.3551 42.4779 70.3718C42.5263 70.376 42.5744 70.3844 42.6224 70.3973C42.6647 70.4027 42.7073 70.4122 42.75 70.4216L42.7925 70.4308L42.8108 70.4346L42.8441 70.4436C42.9261 70.4659 43.0103 70.4887 43.0916 70.5142H43.099L48.2792 72.1935C49.7867 72.6787 51.0651 73.6291 52.144 74.7935L52.2253 74.8814L52.3177 74.9898C52.7832 75.5094 53.2078 76.0742 53.5961 76.6608C53.677 76.7776 53.7546 76.899 53.8289 77.0204C54.2723 77.7242 54.6676 78.4523 55.0112 79.1682L55.0186 79.1808C55.1664 79.4869 55.3031 79.7879 55.4325 80.0852C55.7687 80.8643 56.0495 81.605 56.2786 82.2707V82.2748C56.5298 83.0117 56.7179 83.6522 56.8513 84.1379C57.786 82.6977 58.8316 83.5267 59.1863 84.1924C59.5632 83.0368 60.9377 83.041 61.503 84.197C62.1164 83.0913 63.2762 83.3299 63.8271 84.117C68.2495 83.9454 74.3907 83.489 79.0902 82.2916C82.3494 81.4626 86.4913 78.2262 88.7341 76.3129C89.7022 75.4881 90.3447 74.2701 90.5335 72.9094C90.5738 72.6159 90.6259 72.2894 90.6887 71.9419C90.9363 70.5393 91.3686 68.7431 92.1186 66.7963C94.2095 61.3576 98.7841 54.7718 108.745 52.4188C110.885 51.9164 112.817 51.7657 114.554 51.9122Z"></path>
<mask fill="white" id="path-5-inside-2_0_168">
<path d="M49.4762 80.4445C51.0306 80.8388 52.3286 81.276 53.4308 82.6203C54.553 83.9889 55.1303 85.896 55.2269 87.591C55.3235 89.286 55.4474 91.1274 56.4983 92.556C55.7613 92.2314 55.1041 91.6169 54.6959 90.8698C54.599 91.8649 54.5022 92.8596 54.4053 93.8548C54.2009 93.4397 53.996 93.0248 53.7916 92.6097C53.0484 94.1595 51.9859 95.4981 50.6878 96.5212C50.0496 97.024 49.2969 97.4648 48.4418 97.3623C47.4477 97.2432 46.5298 96.3868 46.0193 95.4017C45.0878 93.604 45.327 91.5566 45.6746 89.7243C46.0218 87.8917 46.4401 85.9553 45.7946 84.056"></path>
</mask>
<path fill="white" d="M49.4762 80.4445C51.0306 80.8388 52.3286 81.276 53.4308 82.6203C54.553 83.9889 55.1303 85.896 55.2269 87.591C55.3235 89.286 55.4474 91.1274 56.4983 92.556C55.7613 92.2314 55.1041 91.6169 54.6959 90.8698C54.599 91.8649 54.5022 92.8596 54.4053 93.8548C54.2009 93.4397 53.996 93.0248 53.7916 92.6097C53.0484 94.1595 51.9859 95.4981 50.6878 96.5212C50.0496 97.024 49.2969 97.4648 48.4418 97.3623C47.4477 97.2432 46.5298 96.3868 46.0193 95.4017C45.0878 93.604 45.327 91.5566 45.6746 89.7243C46.0218 87.8917 46.4401 85.9553 45.7946 84.056"></path>
<path mask="url(#path-5-inside-2_0_168)" fill="black" d="M53.4308 82.6203L54.0598 82.0675L54.0598 82.0675L53.4308 82.6203ZM56.4983 92.556L56.2745 93.4204L59.0811 94.6564L57.1651 92.0518L56.4983 92.556ZM54.6959 90.8698L55.4471 90.4981L54.0704 87.9782L53.8122 90.6288L54.6959 90.8698ZM54.4053 93.8548L53.6314 94.1826L55.0082 96.9784L55.289 94.0957L54.4053 93.8548ZM53.7916 92.6097L54.5655 92.2819L53.7168 90.5586L52.9865 92.0817L53.7916 92.6097ZM50.6878 96.5212L51.2856 97.3103L51.2857 97.3102L50.6878 96.5212ZM48.4418 97.3623L48.4019 96.4247L48.4018 96.4247L48.4418 97.3623ZM46.0193 95.4017L45.2561 95.7507L45.2561 95.7508L46.0193 95.4017ZM45.6746 89.7243L46.5467 90.0465L46.5467 90.0463L45.6746 89.7243ZM49.4032 81.361C50.9387 81.7505 51.9432 82.1259 52.8018 83.173L54.0598 82.0675C52.714 80.4261 51.1225 79.927 49.5492 79.528L49.4032 81.361ZM52.8018 83.173C53.7253 84.2994 54.2523 85.9537 54.3403 87.499L56.1134 87.683C56.0083 85.8383 55.3806 83.6784 54.0598 82.0675L52.8018 83.173ZM54.3403 87.499C54.4327 89.1198 54.5442 91.3102 55.8316 93.0602L57.1651 92.0518C56.3506 90.9447 56.2143 89.4522 56.1134 87.683L54.3403 87.499ZM56.7222 91.6916C56.2043 91.4636 55.7353 91.0257 55.4471 90.4981L53.9447 91.2414C54.4729 92.2082 55.3183 92.9993 56.2745 93.4204L56.7222 91.6916ZM53.8122 90.6288C53.7637 91.1264 53.7153 91.6239 53.6669 92.1214C53.6185 92.6189 53.57 93.1163 53.5216 93.6138L55.289 94.0957C55.3375 93.5981 55.3859 93.1006 55.4343 92.6031C55.4827 92.1056 55.5311 91.6082 55.5796 91.1107L53.8122 90.6288ZM55.1792 93.5269C55.0768 93.319 54.9744 93.1112 54.8721 92.9038C54.7697 92.6962 54.6675 92.489 54.5655 92.2819L53.0176 92.9376C53.12 93.1455 53.2225 93.3532 53.3248 93.5607C53.4272 93.7682 53.5293 93.9754 53.6314 94.1826L55.1792 93.5269ZM52.9865 92.0817C52.2929 93.5281 51.3008 94.7779 50.0899 95.7322L51.2857 97.3102C52.6711 96.2184 53.8039 94.791 54.5967 93.1377L52.9865 92.0817ZM50.09 95.7321C49.4702 96.2204 48.9211 96.487 48.4019 96.4247L48.4818 98.2999C49.6728 98.4427 50.6289 97.8276 51.2856 97.3103L50.09 95.7321ZM48.4018 96.4247C47.8353 96.3569 47.1842 95.8278 46.7824 95.0525L45.2561 95.7508C45.8754 96.9458 47.06 98.1296 48.4819 98.2999L48.4018 96.4247ZM46.7825 95.0526C46.0434 93.6263 46.1944 91.9033 46.5467 90.0465L44.8025 89.402C44.4596 91.2099 44.1321 93.5817 45.2561 95.7507L46.7825 95.0526ZM46.5467 90.0463C46.8779 88.2986 47.3785 86.0812 46.6253 83.8653L44.9638 84.2468C45.5017 85.8293 45.1658 87.4848 44.8025 89.4022L46.5467 90.0463Z"></path>
<path stroke-linecap="round" stroke-width="0.918963" stroke="black" d="M36.6492 73.53C36.5569 74.315 37.148 76.0106 40.2517 76.513"></path>
<path fill="#100F0D" d="M30.355 68.4443C28.1392 70.3866 26.3716 69.9834 25.7523 69.7397C26.1307 68.93 26.5249 68.2576 26.849 67.7602C27.2192 67.1921 27.9031 67.0145 28.4588 67.3394L30.355 68.4443Z"></path>
<path fill="#292622" d="M31.0206 82.7019C30.9685 83.0076 30.6917 83.2085 30.4183 83.2336C30.1445 83.2588 29.8788 83.1503 29.6276 83.0243C29.2729 82.8531 28.9289 82.6517 28.5967 82.4298C27.898 81.9609 27.2555 81.3915 26.6865 80.7383C25.9106 79.8465 25.264 78.8082 24.7984 77.6736C24.7393 77.4684 24.6946 77.2675 24.6576 77.0665C24.6284 76.9074 24.6022 76.7483 24.5841 76.5934L24.5952 76.6185L24.5989 76.6353C24.8317 77.2382 25.1236 77.8117 25.4709 78.3393C25.6261 78.5784 25.7957 78.8082 25.9734 79.0259C26.5793 79.7795 27.2998 80.4159 28.0942 80.8974C28.6706 81.2449 29.2836 81.5091 29.9195 81.672C30.1781 81.739 30.4478 81.7934 30.6732 81.9525C30.8986 82.1116 31.0723 82.4088 31.0206 82.7019Z"></path>
<path fill="#151311" d="M28.5967 82.4297C27.898 81.9608 27.2555 81.3914 26.6865 80.7383C25.9106 79.8465 25.264 78.8082 24.7984 77.6736C24.7393 77.4684 24.6946 77.2674 24.6576 77.0665C24.6284 76.9074 24.6022 76.7483 24.5841 76.5934L24.5952 76.6185L24.5989 76.6352C24.8317 77.2381 25.1236 77.8117 25.4709 78.3393C25.6261 78.5783 25.7957 78.8082 25.9734 79.0259C26.6089 79.993 27.4735 81.1737 28.5967 82.4297Z"></path>
<path stroke-linecap="round" stroke-width="0.546939" stroke="black" fill="#F2D89C" d="M56.2281 67.5841L55.8097 68.7022C55.6782 69.0535 55.473 69.3724 55.2078 69.6376C54.9426 69.9028 54.6237 70.108 54.2724 70.2395L53.1543 70.6579L54.2724 71.0764C54.6237 71.2078 54.9426 71.4131 55.2078 71.6783C55.473 71.9434 55.6782 72.2624 55.8097 72.6136L56.2281 73.7318L56.6479 72.6101C56.7789 72.26 56.9835 71.942 57.2479 71.6777C57.5122 71.4133 57.8302 71.2087 58.1803 71.0777L59.302 70.6579L58.1838 70.2395C57.8326 70.108 57.5136 69.9028 57.2485 69.6376C56.9833 69.3724 56.778 69.0535 56.6466 68.7022L56.2281 67.5841Z"></path>
<path stroke-linecap="round" stroke-width="0.546939" stroke="black" fill="#F2D89C" d="M35.761 118.163L35.3425 119.281C35.2111 119.633 35.0058 119.952 34.7406 120.217C34.4755 120.482 34.1565 120.687 33.8053 120.819L32.6871 121.237L33.8053 121.656C34.1565 121.787 34.4755 121.992 34.7406 122.257C35.0058 122.523 35.2111 122.842 35.3425 123.193L35.761 124.311L36.1807 123.189C36.3118 122.839 36.5164 122.521 36.7807 122.257C37.045 121.992 37.363 121.788 37.7131 121.657L38.8348 121.237L37.7167 120.819C37.3654 120.687 37.0465 120.482 36.7813 120.217C36.5161 119.952 36.3109 119.633 36.1794 119.281L35.761 118.163Z"></path>
<path stroke-linecap="round" stroke-width="0.546939" stroke="black" fill="#F2D89C" d="M87.7349 103.702L87.421 104.54C87.3224 104.804 87.1685 105.043 86.9696 105.242C86.7707 105.441 86.5315 105.595 86.2681 105.693L85.4295 106.007L86.2681 106.321C86.5315 106.419 86.7707 106.573 86.9696 106.772C87.1685 106.971 87.3224 107.21 87.421 107.474L87.7349 108.312L88.0497 107.471C88.148 107.209 88.3014 106.97 88.4997 106.772C88.6979 106.574 88.9364 106.42 89.199 106.322L90.0403 106.007L89.2016 105.693C88.9382 105.595 88.699 105.441 88.5001 105.242C88.3012 105.043 88.1473 104.804 88.0487 104.54L87.7349 103.702Z"></path>
<path stroke-linecap="round" stroke-width="0.546939" stroke="black" fill="#F2D89C" d="M13.7139 99.0204L13.5046 99.5795C13.4389 99.7551 13.3363 99.9145 13.2037 100.047C13.0711 100.18 12.9116 100.282 12.736 100.348L12.1769 100.557L12.736 100.767C12.9116 100.832 13.0711 100.935 13.2037 101.067C13.3363 101.2 13.4389 101.36 13.5046 101.535L13.7139 102.094L13.9237 101.533C13.9893 101.358 14.0916 101.199 14.2237 101.067C14.3559 100.935 14.5149 100.833 14.6899 100.767L15.2508 100.557L14.6917 100.348C14.5161 100.282 14.3566 100.18 14.224 100.047C14.0914 99.9145 13.9888 99.7551 13.9231 99.5795L13.7139 99.0204Z"></path>
</g>
<defs>
<clipPath id="clip0_0_168">
<rect fill="white" height="134" width="134"></rect>
</clipPath>
</defs>
</svg>
