<svg xmlns="http://www.w3.org/2000/svg" fill="none" viewBox="0 0 134 134" height="134" width="134">
<g clip-path="url(#clip0_0_185)">
<ellipse fill="#F7E0BB" ry="7.76999" rx="60.5241" cy="123.113" cx="60.2646"></ellipse>
<ellipse fill="#F2D89C" ry="7.76999" rx="60.5241" cy="123.113" cx="60.2646"></ellipse>
<path fill="white" d="M12.3277 35.8687C1.66815 45.5195 20.0608 54.8506 29.9286 57.951C29.0348 58.3149 26.9336 59.7196 25.6797 62.4278C25.6797 62.4278 25.1854 62.0627 14.5315 56.2547C3.8776 50.4467 6.53415 39.4265 12.3277 35.8687Z"></path>
<path fill="white" d="M62.1909 55.56C66.8844 55.2791 77.523 54.5485 82.5294 53.8742C85.6418 53.4549 89.5202 50.6248 92.6984 47.7334C95.8274 45.1205 97.3921 36.1727 95.8274 34.4868C94.2627 32.801 92.6984 21 95.8274 21C98.3306 21 103.65 26.6195 105.997 29.4293C114.132 27.4062 119.295 32.239 120.077 35.3298L127.104 35.1515L129.464 35.3298C134.471 39.3758 128.682 44.9659 121.642 45.4449H128.203C129.768 51.3454 121.112 49.1895 117.983 50.8753C115.479 52.224 111.958 57.2459 112.479 60.6176C112.479 72.4186 109.223 76.4348 103.65 80.8479C100.452 83.38 99.5118 83.6858 99.2536 83.036C99.9631 94.3917 105.723 113.039 110.121 115.408C114.814 117.937 114.601 120.465 113.037 122.151C111.472 123.837 105.214 122.994 103.65 122.994C102.398 122.994 101.564 119.061 101.303 117.094L89.9605 101.078L79.7096 86.604C80.3222 87.8319 80.9647 89.4144 80.9647 90.1201C80.9647 91.806 75.4889 98.5494 70.7954 101.921C66.1019 105.293 62.1909 115.408 65.3197 117.094C67.8227 118.442 67.4056 121.589 66.8842 122.994H59.8439C59.0617 121.589 57.6536 118.274 58.2794 116.251C59.0617 113.722 62.1909 101.921 63.7552 95.1777C64.7068 91.0754 67.0826 89.1236 68.7397 88.3004C61.0565 90.7927 53.7092 87.1918 51.2392 85.0625C51.2392 91.8059 47.3279 94.3347 45.7636 95.1777C44.1994 96.0206 41.8522 101.921 41.8522 104.45C41.8522 106.473 45.5027 110.912 47.3279 112.879C48.3709 113.16 50.7698 114.228 52.0214 116.251C53.5859 118.78 52.0214 120.465 49.6747 120.465C47.3279 120.465 44.9812 119.623 43.4167 116.251C41.8522 112.879 34.8119 108.665 32.4652 104.45C30.1184 100.235 35.5942 100.235 37.1587 98.5494C38.5997 96.9966 38.2985 89.8741 36.1791 90.5962C35.9544 90.7601 35.7578 90.8813 35.5942 90.963C32.8181 93.4347 32.4652 91.8059 24.6427 94.3347C16.8202 96.8635 10.5622 112.879 12.9089 115.408C14.7863 117.431 13.6912 119.623 12.9089 120.465H8.9979C7.4334 121.027 4.6173 119.791 5.8689 110.35C7.4334 98.5494 16.0381 89.2772 18.3849 87.5913C20.7316 85.9054 23.0784 66.5181 26.9896 60.6176C30.9009 54.7171 39.5056 53.8742 45.7636 53.8742C50.77 53.8742 58.8011 54.9981 62.1909 55.56Z"></path>
<path stroke-width="0.943431" stroke="black" d="M35.5942 90.963C32.8181 93.4347 32.4652 91.8059 24.6427 94.3347C16.8202 96.8635 10.5622 112.879 12.9089 115.408C14.7863 117.431 13.6912 119.623 12.9089 120.465H8.9979C7.4334 121.027 4.6173 119.791 5.8689 110.35C7.4334 98.5494 16.0381 89.2772 18.3849 87.5913C20.7316 85.9054 23.0784 66.5181 26.9896 60.6176C30.9009 54.7171 39.5056 53.8742 45.7636 53.8742C50.77 53.8742 58.8011 54.9981 62.1909 55.56C66.8844 55.2791 77.523 54.5485 82.5294 53.8742C85.6418 53.4549 89.5202 50.6248 92.6984 47.7334C95.8274 45.1205 97.3921 36.1727 95.8274 34.4868C94.2627 32.801 92.6984 21 95.8274 21C98.3306 21 103.65 26.6195 105.997 29.4293C114.132 27.4062 119.295 32.239 120.077 35.3298L127.104 35.1515L129.464 35.3298C134.471 39.3758 128.682 44.9659 121.642 45.4449H128.203C129.768 51.3454 121.112 49.1895 117.983 50.8753C115.479 52.224 111.958 57.2459 112.479 60.6176C112.479 72.4186 109.223 76.4348 103.65 80.8479C98.3277 85.0625 99.2582 83.1092 99.1809 80.8479C99.1809 91.8059 105.427 112.879 110.121 115.408C114.814 117.937 114.601 120.465 113.037 122.151C111.472 123.837 105.214 122.994 103.65 122.994C102.398 122.994 101.564 119.061 101.303 117.094L89.9605 101.078L78.6179 85.0625C78.6179 84.2196 80.9647 88.7714 80.9647 90.1201C80.9647 91.806 75.4889 98.5494 70.7954 101.921C66.1019 105.293 62.1909 115.408 65.3197 117.094C67.8227 118.442 67.4056 121.589 66.8842 122.994H59.8439C59.0617 121.589 57.6536 118.274 58.2794 116.251C59.0617 113.722 62.1909 101.921 63.7552 95.1777C65.0066 89.7829 68.7209 88.1073 70.0248 87.8264C61.8894 91.1981 53.8467 87.3103 51.2392 85.0625M35.5942 90.963C38.2341 88.6125 38.7232 96.8635 37.1587 98.5494C35.5942 100.235 30.1184 100.235 32.4652 104.45C34.8119 108.665 41.8522 112.879 43.4167 116.251C44.9812 119.623 47.3279 120.465 49.6747 120.465C52.0214 120.465 53.5859 118.78 52.0214 116.251C50.7698 114.228 48.3709 113.16 47.3279 112.879C45.5027 110.912 41.8522 106.473 41.8522 104.45C41.8522 101.921 44.1994 96.0206 45.7636 95.1777C47.3279 94.3347 51.2392 91.8059 51.2392 85.0625M35.5942 90.963C36.8979 90.3117 40.2877 87.1612 43.4167 79.7696L51.2392 85.0625"></path>
<path stroke-linecap="round" stroke-width="0.628954" stroke="#F2D89C" d="M109.246 68.5933C109.026 69.7572 108.286 72.3259 107.083 73.29C107.323 72.7681 107.719 71.4957 107.381 70.5811C106.54 72.4076 104.328 76.386 102.211 77.6879C103.107 75.5704 104.671 70.8512 103.761 68.9139C102.922 69.7923 101.327 71.778 101.665 72.6926C100.482 70.8828 99.5103 65.628 105.084 59.0867"></path>
<path fill="black" d="M130.277 35.6008L130.346 35.6982C130.437 35.8268 130.506 35.9693 130.552 36.12C130.81 36.9736 130.252 37.8574 129.37 37.9917L128.678 38.0972C128.458 38.1307 128.234 38.1285 128.015 38.0908L127.248 37.9587C126.863 37.8925 126.521 37.6763 126.296 37.3576L126.193 37.2118C126.034 36.9864 125.971 36.7071 126.017 36.4352C126.064 36.1633 126.217 35.9211 126.443 35.7619L127.378 35.1015C127.828 34.7832 128.387 34.657 128.931 34.7506C129.475 34.8443 129.959 35.1501 130.277 35.6008Z"></path>
<path stroke-linecap="round" stroke-width="0.943431" stroke="black" d="M29.6156 57.9511C19.7478 54.8507 1.66828 45.5196 12.3278 35.8688C6.53428 39.4266 3.87773 50.4467 14.5316 56.2548C25.1855 62.0628 25.6799 62.4278 25.6799 62.4278"></path>
<path fill="white" d="M111.96 34.1296C112.855 34.0277 113.787 34.3367 114.444 34.9507C114.843 35.324 115.15 35.8317 115.152 36.379C115.154 36.9855 114.782 37.5371 114.329 37.9407C113.592 38.5987 112.563 38.9672 111.595 38.7713C110.626 38.5769 109.776 37.7548 109.689 36.7705C109.634 36.1494 109.877 35.5186 110.291 35.0524C110.706 34.5847 111.269 34.2072 111.96 34.1296Z"></path>
<path fill="#292128" d="M113.645 38.3657C113.242 38.5009 112.789 38.4863 112.396 38.3235C112.003 38.1606 111.672 37.8518 111.493 37.4731C111.664 37.3978 111.841 37.3194 111.971 37.1845C112.1 37.0483 112.173 36.8403 112.096 36.6687C112.03 36.5216 111.868 36.4336 111.707 36.4135C111.546 36.3934 111.384 36.428 111.225 36.4478C111.009 36.0345 111.095 35.5043 111.373 35.1305C111.651 34.7567 112.094 34.5293 112.552 34.4408C113.268 34.2998 114.053 34.4937 114.591 34.9872C115.129 35.4793 115.39 36.2731 115.203 36.9788C115.016 37.6845 114.338 38.1319 113.645 38.3657Z"></path>
<path fill="#292128" d="M114.804 35.4234C114.91 35.5898 115.114 35.6649 115.307 35.7066C115.501 35.7499 115.705 35.7737 115.871 35.8811C116.037 35.9886 116.149 36.2168 116.052 36.3888C115.878 36.6971 115.296 36.5163 115.133 36.83C115.152 36.3963 115.076 35.957 114.804 35.4234Z"></path>
<mask height="34" width="34" y="49" x="19" maskUnits="userSpaceOnUse" style="mask-type:luminance" id="mask0_0_185">
<path stroke-width="1.42257" stroke="white" fill="white" d="M52.2886 82.2885V49.7112H19.7113V82.2885H52.2886Z"></path>
</mask>
<g mask="url(#mask0_0_185)">
<path stroke-linejoin="round" stroke-linecap="round" stroke-miterlimit="10" stroke-width="1.42257" stroke="#B78209" d="M22.3737 70.4609C23.79 74.7895 27.2107 78.2102 31.539 79.6266"></path>
<path stroke-linejoin="round" stroke-linecap="round" stroke-miterlimit="10" stroke-width="1.42257" stroke="#B78209" d="M40.461 79.6266C44.7893 78.2103 48.2101 74.7894 49.6263 70.4609"></path>
<path stroke-linejoin="round" stroke-linecap="round" stroke-miterlimit="10" stroke-width="1.42257" stroke="#B78209" d="M49.6263 61.5388C48.2101 57.2103 44.7893 53.7895 40.461 52.3732"></path>
<path stroke-linejoin="round" stroke-linecap="round" stroke-miterlimit="10" stroke-width="1.42257" stroke="#B78209" d="M31.539 52.3732C27.2107 53.7895 23.7899 57.2104 22.3737 61.5388"></path>
<path stroke-linejoin="round" stroke-linecap="round" stroke-miterlimit="10" stroke-width="1.42257" stroke="#B78209" d="M39.0641 66C39.0641 67.6922 37.6922 69.0641 35.9999 69.0641C34.3076 69.0641 32.9358 67.6922 32.9358 66C32.9358 64.3077 34.3076 62.9358 35.9999 62.9358C37.6922 62.9358 39.0641 64.3077 39.0641 66Z"></path>
<path stroke-linejoin="round" stroke-linecap="round" stroke-miterlimit="10" stroke-width="1.42257" stroke="#B78209" d="M28.5488 67.9921C29.4293 71.2823 32.436 73.7125 36.0001 73.7125C39.5641 73.7125 42.5707 71.2823 43.4512 67.9921"></path>
<path stroke-linejoin="round" stroke-linecap="round" stroke-miterlimit="10" stroke-width="1.42257" stroke="#B78209" d="M43.4513 64.0077C42.5708 60.7176 39.5641 58.2873 36.0001 58.2873C32.4361 58.2873 29.4294 60.7176 28.5488 64.0077"></path>
</g>
<mask height="25" width="24" y="78" x="79" maskUnits="userSpaceOnUse" style="mask-type:luminance" id="mask1_0_185">
<path stroke-width="1.42257" stroke="white" fill="white" d="M102.289 102.289V79.7112H79.7113V102.289H102.289Z"></path>
</mask>
<g mask="url(#mask1_0_185)">
<path stroke-linejoin="round" stroke-linecap="round" stroke-miterlimit="10" stroke-width="1.42257" stroke="#B78209" d="M81.3816 94.1488C82.3813 97.2043 84.796 99.619 87.8512 100.619"></path>
<path stroke-linejoin="round" stroke-linecap="round" stroke-miterlimit="10" stroke-width="1.42257" stroke="#B78209" d="M94.1492 100.619C97.2044 99.6189 99.6191 97.2042 100.619 94.1488"></path>
<path stroke-linejoin="round" stroke-linecap="round" stroke-miterlimit="10" stroke-width="1.42257" stroke="#B78209" d="M100.619 87.851C99.6191 84.7955 97.2044 82.3808 94.1492 81.3811"></path>
<path stroke-linejoin="round" stroke-linecap="round" stroke-miterlimit="10" stroke-width="1.42257" stroke="#B78209" d="M87.8513 81.3811C84.796 82.3808 82.3814 84.7956 81.3817 87.851"></path>
<path stroke-linejoin="round" stroke-linecap="round" stroke-miterlimit="10" stroke-width="1.42257" stroke="#B78209" d="M93.1632 90.9999C93.1632 92.1945 92.1948 93.1629 91.0002 93.1629C89.8057 93.1629 88.8373 92.1945 88.8373 90.9999C88.8373 89.8054 89.8057 88.837 91.0002 88.837C92.1948 88.837 93.1632 89.8054 93.1632 90.9999Z"></path>
<path stroke-linejoin="round" stroke-linecap="round" stroke-miterlimit="10" stroke-width="1.42257" stroke="#B78209" d="M85.7406 92.4061C86.3621 94.7286 88.4845 96.4441 91.0003 96.4441C93.5161 96.4441 95.6384 94.7286 96.2599 92.4061"></path>
<path stroke-linejoin="round" stroke-linecap="round" stroke-miterlimit="10" stroke-width="1.42257" stroke="#B78209" d="M96.26 89.5936C95.6384 87.2712 93.5161 85.5557 91.0003 85.5557C88.4845 85.5557 86.3622 87.2712 85.7406 89.5936"></path>
</g>
<path stroke-linecap="round" stroke-width="0.943431" stroke="black" fill="#F2D89C" d="M124.349 72.8611L123.868 74.1243C123.716 74.5211 123.48 74.8815 123.176 75.1811C122.871 75.4807 122.504 75.7125 122.1 75.8611L120.814 76.3338L122.1 76.8066C122.504 76.9551 122.871 77.187 123.176 77.4866C123.48 77.7862 123.716 78.1465 123.868 78.5433L124.349 79.8066L124.832 78.5393C124.982 78.1438 125.218 77.7845 125.522 77.4859C125.826 77.1872 126.191 76.9561 126.594 76.8081L127.884 76.3338L126.598 75.8611C126.194 75.7125 125.827 75.4807 125.522 75.1811C125.217 74.8815 124.981 74.5211 124.83 74.1243L124.349 72.8611Z"></path>
<path stroke-linecap="round" stroke-width="0.943431" stroke="black" fill="#F2D89C" d="M79.4384 40.4203L79.0775 41.3678C78.9641 41.6654 78.7871 41.9357 78.5584 42.1603C78.3297 42.385 78.0546 42.559 77.7516 42.6703L76.7873 43.0249L77.7516 43.3795C78.0546 43.4909 78.3297 43.6648 78.5584 43.8895C78.7871 44.1142 78.9641 44.3844 79.0775 44.682L79.4384 45.6295L79.8004 44.6791C79.9134 44.3824 80.0899 44.113 80.3179 43.889C80.5458 43.665 80.8201 43.4916 81.122 43.3806L82.0894 43.0249L81.1251 42.6703C80.8222 42.559 80.5471 42.385 80.3184 42.1603C80.0897 41.9357 79.9126 41.6654 79.7993 41.3678L79.4384 40.4203Z"></path>
<path stroke-linecap="round" stroke-width="0.943431" stroke="black" fill="#F2D89C" d="M12.651 78L12.2901 78.9474C12.1767 79.245 11.9997 79.5153 11.771 79.74C11.5423 79.9647 11.2672 80.1386 10.9643 80.25L9.99994 80.6046L10.9643 80.9591C11.2672 81.0705 11.5423 81.2444 11.771 81.4691C11.9997 81.6938 12.1767 81.9641 12.2901 82.2617L12.651 83.2091L13.013 82.2587C13.1261 81.962 13.3025 81.6926 13.5305 81.4686C13.7585 81.2446 14.0327 81.0713 14.3347 80.9602L15.3021 80.6046L14.3377 80.25C14.0348 80.1386 13.7597 79.9647 13.531 79.74C13.3023 79.5153 13.1253 79.245 13.0119 78.9474L12.651 78Z"></path>
<path stroke-linecap="round" stroke-width="0.943431" stroke="#F2D89C" d="M101.804 31.4288C102.075 30.9003 102.395 30.367 102.601 29.8073C102.623 29.7489 102.637 29.6838 102.64 29.6217C102.641 29.5689 102.671 29.3353 102.612 29.3186C102.401 29.2583 102.172 29.4207 102.023 29.5425C101.96 29.5938 101.684 30.1053 101.632 30.0939C101.469 30.0577 101.398 28.8039 101.288 28.5843C101.181 28.3706 100.994 28.0652 100.898 28.4315C100.839 28.6566 100.773 29.084 100.516 29.1794C100.284 29.2654 100.181 29.1824 100.082 28.9638C99.9217 28.6116 99.7603 28.2769 99.5549 27.951C99.1593 27.3235 98.6632 26.743 98.1408 26.2148C97.9563 26.0282 97.551 25.6298 97.2373 25.7344C97.1031 25.7791 97.1859 26.4802 97.1963 26.597C97.2259 26.9287 97.3686 27.1426 97.5075 27.4296C98.0607 28.5728 98.2602 30.1802 99.4402 30.861C99.4786 30.8831 100.127 31.2172 100.074 31.2705C99.9431 31.401 99.699 31.4771 99.5467 31.6008C99.3994 31.7205 99.2637 31.9457 99.1618 32.1058C98.9574 32.427 98.6922 32.677 98.7086 33.0886C98.7156 33.2624 99.3956 33.0999 99.4948 33.0503"></path>
</g>
<defs>
<clipPath id="clip0_0_185">
<rect fill="white" height="134" width="134"></rect>
</clipPath>
</defs>
</svg>
