<svg xmlns="http://www.w3.org/2000/svg" fill="none" viewBox="0 0 134 134" height="134" width="134">
<g clip-path="url(#clip0_0_226)">
<ellipse fill="#F7E0BB" ry="5.5" rx="50" cy="128.5" cx="50"></ellipse>
<ellipse fill="#F2D89C" ry="5.5" rx="50" cy="128.5" cx="50"></ellipse>
<path stroke-width="0.6" stroke="black" fill="white" d="M92.2181 66.8897C84.793 58.6861 81.1938 52.3448 80.3223 50.1996L67.6844 60.4316C70.2252 60.9902 76.3072 62.3942 80.3086 63.5419C85.3104 64.9766 87.4505 69.2674 90.3047 74.0354C93.1589 78.8035 92.2058 78.8025 92.2039 80.7086C92.2023 82.2334 94.427 81.3462 95.5395 80.712C97.5261 79.5227 99.6432 75.0933 92.2181 66.8897Z"></path>
<path stroke-width="0.6" stroke="black" fill="white" d="M66.7754 96.9188C67.0987 92.5303 66.595 84.0982 66.3027 80.4308L51.9654 88.8186C53.2086 91.4235 55.5843 97.318 55.1415 100.057C54.5881 103.481 51.4535 106.858 53.1608 112.311C54.5267 116.674 54.5101 122.268 54.3311 124.52C54.666 125.499 55.3136 127.823 55.2248 129.288C55.1359 130.753 60.594 130.772 63.3342 130.598C63.3791 129.558 62.8668 127.083 60.4582 125.511C58.0496 123.938 57.828 122.003 58.0183 121.233C56.4885 120.246 59.334 113.093 59.6762 110.976C60.0183 108.859 66.3712 102.405 66.7754 96.9188Z"></path>
<path stroke-width="0.6" stroke="black" d="M90.9414 59.6002C89.4019 60.8338 84.9508 62.8864 79.462 61.2276"></path>
<mask fill="white" id="path-5-inside-1_0_226">
<path d="M99.5936 16.9747C100.114 14.2672 98.1685 8.31688 98.1685 8.31688C98.3488 6.2439 90.4255 10.0524 88.9531 10.8361C88.5184 11.0676 88.0937 11.1944 87.711 11.2583C87.4351 11.1324 87.1771 11.0028 86.994 10.8859C86.9181 10.8376 86.7742 10.7257 86.587 10.5803L86.5869 10.5802C86.0004 10.1246 84.9895 9.33941 84.3169 9.14198C83.4294 8.88153 79.5873 8.64142 76.8448 10.2652C74.1023 11.8889 70.3572 14.6821 69.4905 18.6885C69.1162 20.4184 68.597 23.8756 68.0616 27.4411C67.3569 32.1334 66.624 37.0133 66.1564 38.3906C66.0822 38.609 66.3507 38.7219 66.8814 38.7509C61.2873 52.7964 51.3255 71.3186 42.1725 72.8738C30.7714 74.8109 14.6036 55.925 12.7597 51.742C12.1218 55.9439 12.6067 85.7268 39.2696 78.0039C38.5884 78.5483 38.5064 79.3374 38.1232 83.024C37.9559 84.6336 37.7312 86.7953 37.3742 89.7301C36.4997 96.9188 36.5206 101 36.536 104.019L36.536 104.019C36.5465 106.07 36.5545 107.631 36.2777 109.343C35.7302 112.73 33.0819 115.585 31.8262 116.588L28.5972 129.099C29.3992 130.033 31.7271 131.777 34.6219 131.28C37.5168 130.782 36.259 128.407 35.2682 127.281C35.9471 123.369 38.4358 114.519 42.9593 110.423C43.6125 109.902 44.3466 109.359 45.1327 108.778L45.133 108.778L45.1332 108.778C50.127 105.085 57.2199 99.8407 59.0296 88.6448C67.7821 84.2672 88.4226 72.6882 90.8975 59.7658C93.4744 60.7455 96.3482 62.6259 97.2947 63.9373C98.2412 65.2488 101.266 70.2275 102.66 72.5529C103.865 73.0611 106.476 73.434 107.278 70.8606C108.08 68.2872 103.952 63.5653 101.787 61.526L93.2395 51.6972C92.8173 48.4883 91.7146 42.6824 89.9382 37.6776L90.5839 37.807C90.5839 37.807 90.4048 34.8834 90.0991 32.9781C89.9893 32.2924 89.7722 31.7389 89.5643 31.2092C89.3427 30.6441 89.1316 30.1061 89.0725 29.4631L89.078 28.6861C89.0845 28.6218 89.0926 28.5564 89.1023 28.4897C89.18 27.9576 91.2144 25.4984 92.477 24.7172C96.8884 21.9873 96.0744 20.7348 96.0744 20.7348C96.0744 20.7348 99.1611 19.2266 99.5936 16.9747Z" clip-rule="evenodd" fill-rule="evenodd"></path>
</mask>
<path fill="white" d="M99.5936 16.9747C100.114 14.2672 98.1685 8.31688 98.1685 8.31688C98.3488 6.2439 90.4255 10.0524 88.9531 10.8361C88.5184 11.0676 88.0937 11.1944 87.711 11.2583C87.4351 11.1324 87.1771 11.0028 86.994 10.8859C86.9181 10.8376 86.7742 10.7257 86.587 10.5803L86.5869 10.5802C86.0004 10.1246 84.9895 9.33941 84.3169 9.14198C83.4294 8.88153 79.5873 8.64142 76.8448 10.2652C74.1023 11.8889 70.3572 14.6821 69.4905 18.6885C69.1162 20.4184 68.597 23.8756 68.0616 27.4411C67.3569 32.1334 66.624 37.0133 66.1564 38.3906C66.0822 38.609 66.3507 38.7219 66.8814 38.7509C61.2873 52.7964 51.3255 71.3186 42.1725 72.8738C30.7714 74.8109 14.6036 55.925 12.7597 51.742C12.1218 55.9439 12.6067 85.7268 39.2696 78.0039C38.5884 78.5483 38.5064 79.3374 38.1232 83.024C37.9559 84.6336 37.7312 86.7953 37.3742 89.7301C36.4997 96.9188 36.5206 101 36.536 104.019L36.536 104.019C36.5465 106.07 36.5545 107.631 36.2777 109.343C35.7302 112.73 33.0819 115.585 31.8262 116.588L28.5972 129.099C29.3992 130.033 31.7271 131.777 34.6219 131.28C37.5168 130.782 36.259 128.407 35.2682 127.281C35.9471 123.369 38.4358 114.519 42.9593 110.423C43.6125 109.902 44.3466 109.359 45.1327 108.778L45.133 108.778L45.1332 108.778C50.127 105.085 57.2199 99.8407 59.0296 88.6448C67.7821 84.2672 88.4226 72.6882 90.8975 59.7658C93.4744 60.7455 96.3482 62.6259 97.2947 63.9373C98.2412 65.2488 101.266 70.2275 102.66 72.5529C103.865 73.0611 106.476 73.434 107.278 70.8606C108.08 68.2872 103.952 63.5653 101.787 61.526L93.2395 51.6972C92.8173 48.4883 91.7146 42.6824 89.9382 37.6776L90.5839 37.807C90.5839 37.807 90.4048 34.8834 90.0991 32.9781C89.9893 32.2924 89.7722 31.7389 89.5643 31.2092C89.3427 30.6441 89.1316 30.1061 89.0725 29.4631L89.078 28.6861C89.0845 28.6218 89.0926 28.5564 89.1023 28.4897C89.18 27.9576 91.2144 25.4984 92.477 24.7172C96.8884 21.9873 96.0744 20.7348 96.0744 20.7348C96.0744 20.7348 99.1611 19.2266 99.5936 16.9747Z" clip-rule="evenodd" fill-rule="evenodd"></path>
<path mask="url(#path-5-inside-1_0_226)" fill="black" d="M98.1685 8.31688L97.5708 8.2649L97.5602 8.3869L97.5982 8.5033L98.1685 8.31688ZM99.5936 16.9747L100.183 17.0879L100.183 17.0879L99.5936 16.9747ZM88.9531 10.8361L88.6712 10.3064L88.6711 10.3065L88.9531 10.8361ZM87.711 11.2583L87.4621 11.8042L87.6289 11.8803L87.8097 11.8501L87.711 11.2583ZM86.994 10.8859L87.3168 10.3802L87.3165 10.38L86.994 10.8859ZM86.587 10.5803L86.9551 10.1065L86.9494 10.1022L86.587 10.5803ZM86.5869 10.5802L86.2188 11.0541L86.2244 11.0584L86.5869 10.5802ZM84.3169 9.14198L84.4858 8.56627L84.3169 9.14198ZM76.8448 10.2652L76.5391 9.74888L76.8448 10.2652ZM69.4905 18.6885L68.904 18.5617L68.904 18.5617L69.4905 18.6885ZM68.0616 27.4411L68.6549 27.5302L68.0616 27.4411ZM66.1564 38.3906L66.7245 38.5836L66.7245 38.5836L66.1564 38.3906ZM66.8814 38.7509L67.4388 38.9729L67.7477 38.1972L66.9141 38.1518L66.8814 38.7509ZM42.1725 72.8738L42.273 73.4653L42.273 73.4653L42.1725 72.8738ZM12.7597 51.742L13.3088 51.5L12.4763 49.6115L12.1665 51.6519L12.7597 51.742ZM39.2696 78.0039L39.6442 78.4725L39.1027 77.4275L39.2696 78.0039ZM38.1232 83.024L37.5264 82.962L38.1232 83.024ZM37.3742 89.7301L36.7786 89.6577L37.3742 89.7301ZM36.536 104.019L37.136 104.016L37.136 104.016L36.536 104.019ZM36.536 104.019L35.936 104.022L35.936 104.022L36.536 104.019ZM31.8262 116.588L31.4515 116.12L31.2952 116.245L31.2452 116.438L31.8262 116.588ZM28.5972 129.099L28.0162 128.949L27.938 129.253L28.142 129.49L28.5972 129.099ZM34.6219 131.28L34.7236 131.871L34.7236 131.871L34.6219 131.28ZM35.2682 127.281L34.6771 127.179L34.6279 127.462L34.8179 127.678L35.2682 127.281ZM42.9593 110.423L42.5849 109.955L42.5704 109.966L42.5566 109.979L42.9593 110.423ZM45.1327 108.778L45.4894 109.26L45.495 109.256L45.1327 108.778ZM45.133 108.778L45.4953 109.256L45.4964 109.255L45.133 108.778ZM45.1332 108.778L44.7765 108.295L44.7697 108.3L45.1332 108.778ZM59.0296 88.6448L58.7612 88.1082L58.4863 88.2457L58.4373 88.5491L59.0296 88.6448ZM90.8975 59.7658L91.1107 59.2049L90.4426 58.951L90.3082 59.6529L90.8975 59.7658ZM102.66 72.5529L102.145 72.8614L102.246 73.0296L102.427 73.1058L102.66 72.5529ZM107.278 70.8606L107.85 71.0391L107.278 70.8606ZM101.787 61.526L101.335 61.9197L101.354 61.9422L101.376 61.9627L101.787 61.526ZM93.2395 51.6972L92.6446 51.7754L92.6682 51.9546L92.7867 52.0909L93.2395 51.6972ZM89.9382 37.6776L90.056 37.0893L89.019 36.8816L89.3728 37.8783L89.9382 37.6776ZM90.5839 37.807L90.4661 38.3953L91.2305 38.5484L91.1828 37.7703L90.5839 37.807ZM90.0991 32.9781L89.5066 33.073L89.5066 33.0732L90.0991 32.9781ZM89.5643 31.2092L90.1229 30.9901L90.1229 30.9901L89.5643 31.2092ZM89.0725 29.4631L88.4726 29.4589L88.4724 29.4885L88.4751 29.518L89.0725 29.4631ZM89.078 28.6861L88.4811 28.6253L88.4782 28.6535L88.478 28.6819L89.078 28.6861ZM89.1023 28.4897L88.5086 28.4031L88.5086 28.4031L89.1023 28.4897ZM92.477 24.7172L92.7927 25.2275L92.7927 25.2274L92.477 24.7172ZM96.0744 20.7348L95.811 20.1957L95.2019 20.4933L95.5713 21.0617L96.0744 20.7348ZM98.1685 8.31688C97.5982 8.5033 97.5982 8.50327 97.5982 8.50325C97.5982 8.50328 97.5982 8.50329 97.5982 8.50334C97.5983 8.50344 97.5983 8.50363 97.5984 8.50391C97.5986 8.50447 97.5989 8.50539 97.5993 8.50666C97.6001 8.50921 97.6014 8.51317 97.6031 8.5185C97.6066 8.52918 97.6118 8.54536 97.6186 8.56678C97.6323 8.60962 97.6525 8.67337 97.6781 8.75579C97.7293 8.92067 97.8021 9.1601 97.8881 9.45619C98.0601 10.0489 98.2839 10.8661 98.4914 11.7653C98.6992 12.6661 98.8885 13.6403 98.9943 14.549C99.1013 15.4683 99.1169 16.2754 99.0044 16.8616L100.183 17.0879C100.33 16.3203 100.298 15.3682 100.186 14.4103C100.074 13.4419 99.8741 12.4209 99.6607 11.4956C99.4469 10.5688 99.2169 9.72922 99.0405 9.12165C98.9522 8.8176 98.8772 8.57101 98.8241 8.3999C98.7975 8.31434 98.7764 8.2476 98.7618 8.20196C98.7545 8.17913 98.7489 8.16157 98.745 8.14957C98.7431 8.14356 98.7416 8.13894 98.7405 8.13575C98.74 8.13415 98.7396 8.13291 98.7393 8.13203C98.7392 8.13159 98.7391 8.13123 98.739 8.13097C98.7389 8.13084 98.7389 8.13072 98.7389 8.13065C98.7388 8.13055 98.7388 8.13046 98.1685 8.31688ZM89.235 11.3657C89.9541 10.983 92.2778 9.84731 94.3884 9.06808C95.4536 8.67481 96.4134 8.3919 97.0744 8.32248C97.4195 8.28623 97.5846 8.3203 97.6347 8.34324C97.6446 8.34779 97.6139 8.33504 97.5886 8.29018C97.5643 8.24719 97.5741 8.22629 97.5708 8.2649L98.7663 8.36887C98.7854 8.14835 98.7545 7.91428 98.6332 7.69971C98.5109 7.48328 98.3271 7.34056 98.1347 7.25239C97.7802 7.08988 97.3444 7.08751 96.949 7.12904C96.1291 7.21517 95.0499 7.54467 93.9727 7.94236C91.7986 8.74505 89.4245 9.90548 88.6712 10.3064L89.235 11.3657ZM87.8097 11.8501C88.249 11.7768 88.7368 11.631 89.2351 11.3656L88.6711 10.3065C88.3 10.5041 87.9384 10.6121 87.6123 10.6664L87.8097 11.8501ZM86.6712 11.3917C86.8908 11.5319 87.1797 11.6754 87.4621 11.8042L87.96 10.7123C87.6905 10.5895 87.4635 10.4738 87.3168 10.3802L86.6712 11.3917ZM86.2189 11.0542C86.391 11.1878 86.5653 11.3242 86.6715 11.3919L87.3165 10.38C87.2709 10.3509 87.1573 10.2636 86.9551 10.1065L86.2189 11.0542ZM86.2244 11.0584L86.2246 11.0585L86.9494 10.1022L86.9493 10.1021L86.2244 11.0584ZM84.1479 9.7177C84.3871 9.78792 84.7414 9.98568 85.1476 10.261C85.5392 10.5264 85.9238 10.8249 86.2188 11.0541L86.9549 10.1064C86.6634 9.87995 86.2494 9.55808 85.8208 9.26762C85.4068 8.98704 84.9193 8.69348 84.4858 8.56627L84.1479 9.7177ZM77.1505 10.7815C78.4132 10.0339 79.9583 9.70171 81.3232 9.59518C82.7006 9.48767 83.8018 9.61614 84.1479 9.7177L84.4858 8.56627C83.9444 8.40737 82.6808 8.28556 81.2298 8.39882C79.7661 8.51306 78.019 8.87271 76.5391 9.74888L77.1505 10.7815ZM70.0769 18.8154C70.8848 15.0807 74.4146 12.4013 77.1505 10.7815L76.5391 9.74888C73.79 11.3765 69.8295 14.2834 68.904 18.5617L70.0769 18.8154ZM68.6549 27.5302C69.1922 23.9528 69.7079 20.5213 70.0769 18.8154L68.904 18.5617C68.5246 20.3155 68.0019 23.7983 67.4682 27.352L68.6549 27.5302ZM66.7245 38.5836C66.9775 37.8384 67.285 36.219 67.6119 34.2576C67.9426 32.2732 68.3028 29.8749 68.6549 27.5302L67.4682 27.352C67.1157 29.6996 66.757 32.0874 66.4282 34.0603C66.0956 36.0563 65.8029 37.5655 65.5882 38.1977L66.7245 38.5836ZM66.9141 38.1518C66.7982 38.1454 66.7084 38.1351 66.6419 38.1229C66.5718 38.1101 66.547 38.0987 66.55 38.1001C66.553 38.1015 66.5713 38.1104 66.5963 38.1312C66.6221 38.1525 66.6582 38.1893 66.689 38.2451C66.7211 38.3031 66.74 38.3688 66.7436 38.4357C66.747 38.5003 66.7354 38.5513 66.7245 38.5836L65.5882 38.1977C65.5257 38.3818 65.5195 38.6095 65.6384 38.8249C65.7451 39.0182 65.9112 39.125 66.0341 39.1835C66.2705 39.2961 66.5705 39.3348 66.8487 39.35L66.9141 38.1518ZM42.273 73.4653C44.729 73.048 47.1726 71.5086 49.5194 69.2979C51.874 67.0798 54.1813 64.1385 56.3626 60.8262C60.7261 54.2005 64.6325 46.0188 67.4388 38.9729L66.324 38.5289C63.5362 45.5284 59.6647 53.6305 55.3605 60.1662C53.208 63.4346 50.959 66.2932 48.6966 68.4244C46.4265 70.5628 44.1925 71.922 42.072 72.2822L42.273 73.4653ZM12.2107 51.984C12.7091 53.1146 14.1152 55.1356 16.0704 57.4665C18.0409 59.8157 20.6121 62.5304 23.4863 65.0538C26.358 67.5751 29.549 69.9202 32.7593 71.5148C35.9616 73.1053 39.2453 73.9797 42.273 73.4653L42.072 72.2822C39.3992 72.7364 36.3864 71.9765 33.2931 70.44C30.2078 68.9076 27.1039 66.633 24.278 64.1521C21.4546 61.6732 18.9256 59.0032 16.9898 56.6954C15.0386 54.3692 13.7323 52.4609 13.3088 51.5L12.2107 51.984ZM39.1027 77.4275C32.5372 79.3292 27.6638 78.9007 24.0437 77.206C20.4196 75.5096 17.9643 72.5036 16.3174 69.0844C14.669 65.662 13.8472 61.8579 13.4794 58.6361C13.1109 55.4071 13.2039 52.814 13.3529 51.832L12.1665 51.6519C11.9967 52.7709 11.911 55.4763 12.2872 58.7721C12.6642 62.0751 13.5104 66.0218 15.2363 69.6051C16.9637 73.1915 19.5891 76.4458 23.5349 78.2929C27.4847 80.1418 32.6705 80.54 39.4365 78.5802L39.1027 77.4275ZM38.72 83.0861C38.9135 81.2246 39.0264 80.1468 39.1717 79.4598C39.3096 78.8075 39.4532 78.6252 39.6442 78.4725L38.895 77.5352C38.4048 77.9269 38.1668 78.4115 37.9976 79.2115C37.8358 79.9768 37.7161 81.1369 37.5264 82.962L38.72 83.0861ZM37.9698 89.8026C38.3275 86.8624 38.5526 84.6963 38.72 83.0861L37.5264 82.962C37.3592 84.5708 37.1349 86.7283 36.7786 89.6577L37.9698 89.8026ZM37.136 104.016C37.1206 101.01 37.0995 96.9566 37.9698 89.8026L36.7786 89.6577C35.8999 96.881 35.9205 100.99 35.936 104.022L37.136 104.016ZM37.136 104.016L37.136 104.016L35.936 104.022L35.936 104.022L37.136 104.016ZM36.87 109.439C37.156 107.67 37.1464 106.059 37.136 104.016L35.936 104.022C35.9465 106.081 35.9529 107.592 35.6854 109.248L36.87 109.439ZM32.2008 117.057C32.8735 116.519 33.8885 115.513 34.8084 114.205C35.7277 112.897 36.577 111.252 36.87 109.439L35.6854 109.248C35.4309 110.822 34.6823 112.297 33.8267 113.515C32.9715 114.731 32.0345 115.654 31.4515 116.12L32.2008 117.057ZM29.1782 129.249L32.4071 116.738L31.2452 116.438L28.0162 128.949L29.1782 129.249ZM34.5203 130.688C31.9111 131.137 29.7777 129.553 29.0524 128.708L28.142 129.49C29.0208 130.514 31.543 132.418 34.7236 131.871L34.5203 130.688ZM34.8179 127.678C35.2871 128.211 35.7468 128.967 35.8049 129.573C35.8313 129.849 35.7723 130.049 35.6336 130.207C35.4831 130.377 35.1677 130.577 34.5203 130.688L34.7236 131.871C35.5237 131.734 36.1365 131.45 36.5335 131C36.9422 130.537 37.0495 129.98 36.9995 129.459C36.9047 128.471 36.2401 127.477 35.7186 126.885L34.8179 127.678ZM42.5566 109.979C40.1923 112.119 38.3979 115.458 37.1142 118.7C35.8253 121.955 35.0229 125.186 34.6771 127.179L35.8594 127.384C36.1925 125.464 36.9739 122.314 38.2299 119.142C39.4911 115.957 41.2028 112.823 43.362 110.868L42.5566 109.979ZM44.776 108.295C43.9921 108.875 43.2485 109.425 42.5849 109.955L43.3336 110.892C43.9765 110.379 44.7011 109.843 45.4894 109.26L44.776 108.295ZM44.7706 108.3L44.7703 108.3L45.495 109.256L45.4953 109.256L44.7706 108.3ZM44.7697 108.3L44.7695 108.3L45.4964 109.255L45.4967 109.255L44.7697 108.3ZM58.4373 88.5491C56.6689 99.4895 49.7615 104.609 44.7765 108.295L45.4899 109.26C50.4926 105.561 57.771 100.192 59.6219 88.7406L58.4373 88.5491ZM90.3082 59.6529C89.1158 65.8789 83.5033 71.886 76.9514 76.9343C70.4319 81.9576 63.1226 85.9268 58.7612 88.1082L59.298 89.1815C63.6891 86.9852 71.0763 82.9761 77.6839 77.8849C84.259 72.8186 90.2043 66.575 91.4868 59.8786L90.3082 59.6529ZM97.7812 63.5862C97.2416 62.8385 96.2104 61.9917 95.0355 61.2247C93.8452 60.4477 92.4442 59.7119 91.1107 59.2049L90.6843 60.3266C91.9276 60.7993 93.2521 61.4936 94.3795 62.2296C95.5223 62.9756 96.4013 63.7247 96.8082 64.2885L97.7812 63.5862ZM103.174 72.2444C101.788 69.9318 98.7467 64.924 97.7812 63.5862L96.8082 64.2885C97.7357 65.5736 100.744 70.5231 102.145 72.8614L103.174 72.2444ZM106.705 70.6821C106.376 71.7368 105.716 72.1436 105.012 72.2721C104.257 72.4099 103.425 72.2244 102.893 72.0001L102.427 73.1058C103.1 73.3896 104.175 73.6447 105.228 73.4526C106.33 73.2513 107.377 72.5578 107.85 71.0391L106.705 70.6821ZM101.376 61.9627C102.436 62.9617 103.978 64.6196 105.15 66.3318C105.736 67.1885 106.215 68.0381 106.5 68.8105C106.788 69.5943 106.848 70.2221 106.705 70.6821L107.85 71.0391C108.108 70.2124 107.953 69.2849 107.626 68.3958C107.294 67.4954 106.756 66.5545 106.14 65.6542C104.907 63.8522 103.303 62.1295 102.199 61.0893L101.376 61.9627ZM92.7867 52.0909L101.335 61.9197L102.24 61.1323L93.6922 51.3034L92.7867 52.0909ZM89.3728 37.8783C91.1308 42.8314 92.2259 48.5933 92.6446 51.7754L93.8343 51.6189C93.4087 48.3833 92.2984 42.5334 90.5036 37.4769L89.3728 37.8783ZM90.7018 37.2187L90.056 37.0893L89.8203 38.266L90.4661 38.3953L90.7018 37.2187ZM89.5066 33.0732C89.6559 34.0032 89.7756 35.1923 89.8583 36.1583C89.8995 36.6393 89.9313 37.0613 89.9527 37.3629C89.9634 37.5137 89.9715 37.6343 89.9769 37.717C89.9796 37.7583 89.9817 37.7902 89.983 37.8116C89.9837 37.8224 89.9842 37.8305 89.9845 37.8359C89.9847 37.8385 89.9848 37.8406 89.9849 37.8419C89.985 37.8425 89.985 37.843 89.985 37.8433C89.985 37.8435 89.985 37.8436 89.985 37.8436C89.985 37.8437 89.985 37.8437 89.985 37.8437C89.985 37.8437 89.985 37.8437 90.5839 37.807C91.1828 37.7703 91.1828 37.7703 91.1828 37.7702C91.1828 37.7702 91.1828 37.7702 91.1828 37.7701C91.1828 37.77 91.1828 37.7698 91.1827 37.7696C91.1827 37.7692 91.1827 37.7686 91.1826 37.7679C91.1825 37.7664 91.1824 37.7642 91.1822 37.7613C91.1819 37.7555 91.1813 37.7469 91.1806 37.7358C91.1792 37.7134 91.1771 37.6806 91.1743 37.6383C91.1688 37.5537 91.1605 37.431 91.1496 37.2779C91.1279 36.9719 91.0958 36.5439 91.054 36.0559C90.9707 35.0837 90.848 33.8584 90.6915 32.8831L89.5066 33.0732ZM89.0058 31.4283C89.2146 31.9606 89.4083 32.4589 89.5066 33.073L90.6915 32.8833C90.5702 32.1259 90.3297 31.5173 90.1229 30.9901L89.0058 31.4283ZM88.4751 29.518C88.543 30.2579 88.7874 30.8716 89.0058 31.4283L90.1229 30.9901C89.898 30.4167 89.7202 29.9542 89.67 29.4082L88.4751 29.518ZM88.478 28.6819L88.4726 29.4589L89.6725 29.4673L89.678 28.6902L88.478 28.6819ZM88.5086 28.4031C88.4976 28.4783 88.4885 28.5524 88.4811 28.6253L89.6749 28.7468C89.6805 28.6913 89.6875 28.6345 89.696 28.5763L88.5086 28.4031ZM92.1613 24.207C91.4492 24.6476 90.5761 25.5157 89.8922 26.3036C89.544 26.7047 89.229 27.1034 88.9926 27.4425C88.8748 27.6115 88.7711 27.7735 88.6915 27.9188C88.6226 28.0448 88.535 28.2223 88.5086 28.4031L89.696 28.5764C89.689 28.6242 89.682 28.6084 89.7441 28.495C89.7957 28.4009 89.8734 28.2774 89.977 28.1288C90.1834 27.8327 90.4705 27.468 90.7984 27.0902C91.4668 26.3201 92.2423 25.568 92.7927 25.2275L92.1613 24.207ZM96.0744 20.7348C95.5713 21.0617 95.5708 21.0609 95.5702 21.06C95.57 21.0598 95.5695 21.0589 95.5691 21.0584C95.5684 21.0572 95.5677 21.0561 95.567 21.0551C95.5657 21.0529 95.5643 21.0507 95.5631 21.0487C95.5605 21.0445 95.5582 21.0405 95.556 21.0367C95.5517 21.0292 95.5481 21.0224 95.5451 21.0163C95.539 21.0042 95.5355 20.9952 95.5335 20.9894C95.5293 20.9773 95.5324 20.9805 95.5333 21.0008C95.535 21.0376 95.5317 21.1734 95.4002 21.4206C95.1269 21.9347 94.3355 22.8615 92.1613 24.207L92.7927 25.2274C95.0299 23.843 96.0373 22.7786 96.4598 21.984C96.6762 21.5768 96.7451 21.2289 96.732 20.9455C96.7256 20.8057 96.6995 20.6897 96.668 20.5984C96.6524 20.5531 96.6357 20.5145 96.6199 20.4827C96.612 20.4668 96.6044 20.4527 96.5972 20.4402C96.5936 20.4339 96.5902 20.4281 96.5869 20.4227C96.5852 20.42 96.5836 20.4175 96.5821 20.415C96.5813 20.4137 96.5805 20.4125 96.5798 20.4113C96.5794 20.4107 96.5788 20.4099 96.5786 20.4096C96.5781 20.4087 96.5775 20.4078 96.0744 20.7348ZM99.0044 16.8615C98.83 17.7693 98.0949 18.5944 97.2977 19.2301C96.9113 19.5383 96.5356 19.782 96.2562 19.9486C96.1169 20.0316 96.0028 20.0948 95.9247 20.1366C95.8857 20.1575 95.8558 20.173 95.8364 20.1829C95.8266 20.1879 95.8196 20.1914 95.8153 20.1936C95.8131 20.1946 95.8117 20.1954 95.811 20.1957C95.8106 20.1959 95.8104 20.196 95.8104 20.196C95.8104 20.196 95.8105 20.196 95.8106 20.1959C95.8106 20.1959 95.8107 20.1958 95.8108 20.1958C95.8109 20.1958 95.811 20.1957 96.0744 20.7348C96.3378 21.2739 96.338 21.2738 96.3381 21.2737C96.3382 21.2737 96.3384 21.2736 96.3385 21.2735C96.3388 21.2734 96.3391 21.2732 96.3395 21.273C96.3403 21.2727 96.3412 21.2722 96.3423 21.2717C96.3446 21.2705 96.3476 21.2691 96.3513 21.2672C96.3587 21.2635 96.369 21.2583 96.382 21.2517C96.408 21.2384 96.4448 21.2193 96.4911 21.1946C96.5835 21.1451 96.7139 21.0728 96.8707 20.9793C97.1836 20.7928 97.6066 20.5187 98.0459 20.1683C98.9002 19.487 99.9246 18.432 100.183 17.0879L99.0044 16.8615Z"></path>
<path fill="black" d="M94.8742 9.56771C94.8511 9.24008 95.108 8.92511 95.3748 8.67391C95.7614 8.3102 96.2032 7.99559 96.6797 7.74497C96.8727 7.64355 97.0761 7.5506 97.2888 7.52537C97.5011 7.49983 97.9708 7.50455 98.0895 7.65319C98.8059 8.45606 99.0151 9.49437 98.8147 10.5921C98.781 10.7763 98.7077 10.9912 98.5172 11.0696C98.4192 11.1101 98.3118 11.1033 98.2103 11.0942C97.2524 11.0045 96.3355 10.7352 95.5311 10.3064C95.2189 10.1402 94.8984 9.91153 94.8742 9.56771Z"></path>
<mask fill="white" id="path-8-inside-2_0_226">
<path d="M74.2745 16.7413C72.6842 17.816 71.4196 18.8247 70.9156 20.6834C70.4025 22.5759 70.8431 24.7887 71.7227 26.5762C72.6023 28.3638 73.5356 30.314 73.141 32.2375C73.8144 31.5862 74.2244 30.6705 74.2651 29.7253C74.9615 30.7087 75.6575 31.6918 76.3539 32.6751C76.3502 32.1597 76.3473 31.6441 76.3437 31.1287C78.1221 32.4055 80.1509 33.3274 82.2709 33.823C83.3132 34.0664 84.4531 34.1968 85.3949 33.7234C86.4899 33.1732 87.0636 31.8962 87.0848 30.6618C87.1232 28.4094 85.6438 26.4033 84.1634 24.6653C82.6833 22.9269 81.0591 21.1121 80.703 18.8781"></path>
</mask>
<path fill="white" d="M74.2745 16.7413C72.6842 17.816 71.4196 18.8247 70.9156 20.6834C70.4025 22.5759 70.8431 24.7887 71.7227 26.5762C72.6023 28.3638 73.5356 30.314 73.141 32.2375C73.8144 31.5862 74.2244 30.6705 74.2651 29.7253C74.9615 30.7087 75.6575 31.6918 76.3539 32.6751C76.3502 32.1597 76.3473 31.6441 76.3437 31.1287C78.1221 32.4055 80.1509 33.3274 82.2709 33.823C83.3132 34.0664 84.4531 34.1968 85.3949 33.7234C86.4899 33.1732 87.0636 31.8962 87.0848 30.6618C87.1232 28.4094 85.6438 26.4033 84.1634 24.6653C82.6833 22.9269 81.0591 21.1121 80.703 18.8781"></path>
<path mask="url(#path-8-inside-2_0_226)" fill="black" d="M70.9156 20.6834L70.3411 20.5267L70.3411 20.5267L70.9156 20.6834ZM73.141 32.2375L73.5545 32.6671L72.1705 34.0057L72.5579 32.1171L73.141 32.2375ZM74.2651 29.7253L73.6703 29.6994L73.7451 27.9602L74.7505 29.38L74.2651 29.7253ZM76.3539 32.6751L76.9492 32.6712L76.9625 34.5654L75.8685 33.0205L76.3539 32.6751ZM76.3437 31.1287L75.7484 31.1327L75.7401 29.9614L76.6902 30.6435L76.3437 31.1287ZM82.2709 33.823L82.1361 34.4042L82.136 34.4042L82.2709 33.823ZM85.3949 33.7234L85.1279 33.1899L85.128 33.1898L85.3949 33.7234ZM87.0848 30.6618L87.68 30.6722L87.68 30.6723L87.0848 30.6618ZM84.1634 24.6653L83.7107 25.0528L83.7106 25.0527L84.1634 24.6653ZM74.6074 17.2362C73.0277 18.3037 71.9328 19.2076 71.4901 20.8401L70.3411 20.5267C70.9065 18.4417 72.3407 17.3283 73.9416 16.2465L74.6074 17.2362ZM71.4901 20.8401C71.0268 22.5492 71.4184 24.6089 72.2566 26.3124L71.1888 26.8401C70.2678 24.9684 69.7783 22.6026 70.3411 20.5267L71.4901 20.8401ZM72.2566 26.3124C73.1149 28.0567 74.1671 30.1985 73.7242 32.3579L72.5579 32.1171C72.9041 30.4294 72.0896 28.6709 71.1888 26.8401L72.2566 26.3124ZM72.7276 31.808C73.2902 31.2637 73.6362 30.493 73.6703 29.6994L74.8599 29.7512C74.8127 30.8481 74.3386 31.9086 73.5545 32.6671L72.7276 31.808ZM74.7505 29.38C75.0987 29.8717 75.4468 30.3633 75.7949 30.8549C76.143 31.3465 76.4911 31.8381 76.8393 32.3298L75.8685 33.0205C75.5203 32.5288 75.1722 32.0372 74.8241 31.5455C74.476 31.0539 74.1279 30.5623 73.7797 30.0707L74.7505 29.38ZM75.7585 32.6791C75.7567 32.4212 75.7551 32.1632 75.7535 31.9055C75.7518 31.6477 75.7502 31.3902 75.7484 31.1327L76.939 31.1247C76.9408 31.3827 76.9425 31.6406 76.9441 31.8983C76.9457 32.1561 76.9474 32.4137 76.9492 32.6712L75.7585 32.6791ZM76.6902 30.6435C78.4053 31.8749 80.3623 32.7641 82.4059 33.2418L82.136 34.4042C79.9395 33.8908 77.8389 32.9361 75.9972 31.6138L76.6902 30.6435ZM82.4058 33.2417C83.433 33.4816 84.3882 33.5617 85.1279 33.1899L85.6619 34.2569C84.518 34.8319 83.1933 34.6511 82.1361 34.4042L82.4058 33.2417ZM85.128 33.1898C85.9633 32.7701 86.4708 31.7426 86.4896 30.6513L87.68 30.6723C87.6564 32.0498 87.0165 33.5762 85.6618 34.2569L85.128 33.1898ZM86.4896 30.6514C86.5237 28.6509 85.2025 26.804 83.7107 25.0528L84.6161 24.2779C86.0852 26.0026 87.7228 28.1678 87.68 30.6722L86.4896 30.6514ZM83.7106 25.0527C82.2675 23.3578 80.5032 21.4068 80.1151 18.9721L81.2909 18.7841C81.615 20.8175 83.099 22.4961 84.6161 24.278L83.7106 25.0527Z"></path>
<path fill="black" d="M85.7727 13.1152C85.4978 13.0654 85.2049 13.1028 84.9376 13.2412C84.2943 13.5738 84.0423 14.365 84.375 15.009C84.7081 15.6526 85.4996 15.9042 86.1428 15.5715C86.6969 15.2848 86.9605 14.6582 86.8108 14.079C86.6551 14.2429 86.4238 14.3296 86.1837 14.2909C85.7976 14.2284 85.5352 13.8648 85.5976 13.4787C85.6204 13.3378 85.6833 13.2133 85.7727 13.1152Z" clip-rule="evenodd" fill-rule="evenodd"></path>
<path stroke-width="0.6" stroke="black" d="M92.9254 51.3495C92.38 50.5938 87.8782 45.4069 83.1143 45.972"></path>
<path stroke-width="0.6" stroke="black" d="M90.9078 59.7011C89.2153 60.7147 84.8633 61.5319 79.6499 59.1446"></path>
<path stroke-linecap="round" stroke-width="0.6" stroke="black" d="M116.075 67.1065L115.505 68.1061C115.326 68.42 115.082 68.692 114.789 68.9035C114.495 69.115 114.16 69.2613 113.806 69.3323L112.678 69.5585L113.677 70.1287C113.991 70.3078 114.263 70.5521 114.475 70.8452C114.686 71.1383 114.832 71.4734 114.904 71.8278L115.13 72.9561L115.702 71.9534C115.88 71.6404 116.124 71.3693 116.416 71.1584C116.708 70.9475 117.042 70.8018 117.395 70.7309L118.527 70.504L117.528 69.9339C117.214 69.7548 116.942 69.5105 116.73 69.2174C116.519 68.9243 116.372 68.5892 116.301 68.2348L116.075 67.1065Z"></path>
<path stroke-linecap="round" stroke-width="0.6" stroke="black" fill="white" d="M40.5021 53.5562L39.9949 54.4455C39.8355 54.7248 39.6181 54.9667 39.3574 55.1549C39.0966 55.3431 38.7985 55.4732 38.4832 55.5364L37.4794 55.7377L38.3687 56.2449C38.648 56.4042 38.8899 56.6216 39.0781 56.8824C39.2663 57.1432 39.3964 57.4413 39.4597 57.7566L39.6609 58.7604L40.1697 57.8683C40.3285 57.5898 40.5452 57.3486 40.8052 57.161C41.0651 56.9734 41.3623 56.8437 41.6766 56.7807L42.6836 56.5789L41.7943 56.0716C41.515 55.9123 41.273 55.6949 41.0848 55.4341C40.8966 55.1734 40.7665 54.8753 40.7033 54.56L40.5021 53.5562Z"></path>
<path stroke-linecap="round" stroke-width="0.6" stroke="black" fill="white" d="M23.5747 92.2062L22.8139 93.5402C22.5749 93.9592 22.2488 94.322 21.8577 94.6043C21.4665 94.8866 21.0194 95.0818 20.5464 95.1766L19.0407 95.4785L20.3746 96.2393C20.7936 96.4783 21.1565 96.8044 21.4388 97.1956C21.7211 97.5867 21.9163 98.0338 22.0111 98.5068L22.313 100.013L23.0762 98.6744C23.3144 98.2567 23.6395 97.8949 24.0294 97.6135C24.4193 97.3321 24.8651 97.1376 25.3366 97.0431L26.847 96.7403L25.5131 95.9794C25.0941 95.7404 24.7312 95.4143 24.4489 95.0232C24.1666 94.632 23.9714 94.1849 23.8766 93.7119L23.5747 92.2062Z"></path>
<path stroke-linecap="round" stroke-width="0.6" stroke="black" fill="white" d="M99.7531 29.7574L99.3726 30.4244C99.2531 30.6339 99.0901 30.8153 98.8945 30.9565C98.6989 31.0976 98.4754 31.1952 98.2389 31.2426L97.486 31.3935L98.153 31.7739C98.3625 31.8934 98.5439 32.0565 98.6851 32.2521C98.8262 32.4476 98.9238 32.6712 98.9712 32.9077L99.1222 33.6605L99.5038 32.9915C99.6229 32.7826 99.7854 32.6017 99.9804 32.461C100.175 32.3203 100.398 32.2231 100.634 32.1758L101.389 32.0244L100.722 31.644C100.513 31.5245 100.331 31.3614 100.19 31.1659C100.049 30.9703 99.9514 30.7467 99.904 30.5102L99.7531 29.7574Z"></path>
<g clip-path="url(#clip1_0_226)">
<path fill="black" d="M106.355 8.6875C106.348 8.79063 106.344 8.895 106.344 9C106.344 11.5844 108.65 13.6834 111.491 13.6875C111.335 10.9128 109.105 8.69344 106.355 8.6875ZM110.484 4.40375C108.457 4.7725 106.858 6.22281 106.447 8.06343C109.498 8.11718 111.999 10.5606 112.177 13.6472C114.368 13.3856 116.127 11.8719 116.556 9.92406C113.305 9.725 110.702 7.35937 110.484 4.40375ZM111.167 4.32219C111.343 6.99781 113.702 9.1425 116.646 9.30281C116.653 9.2025 116.656 9.10156 116.656 9C116.656 6.41281 114.346 4.3125 111.5 4.3125C111.388 4.3125 111.277 4.31563 111.167 4.32219Z" clip-rule="evenodd" fill-rule="evenodd"></path>
</g>
</g>
<defs>
<clipPath id="clip0_0_226">
<rect fill="white" height="134" width="134"></rect>
</clipPath>
<clipPath id="clip1_0_226">
<rect transform="translate(106 4)" fill="white" height="10" width="11"></rect>
</clipPath>
</defs>
</svg>
